# xmcd CD database file
#
# Track frame offsets:
#	150
#	19440
#	37253
#	51217
#	68530
#
# Disc length: 1173 seconds
#
# Revision: 1
# Processed by: cddbd v1.5.2PL0 Copyright (c) Steve Scherf et al.
# Submitted via: CDex 1.70beta2
#
DISCID=42049305
DTITLE=Monkey Majik - Together
DYEAR=2008
DGENRE=JPop
TTITLE0=Together
TTITLE1=あかり
TTITLE2=FAll Back
TTITLE3=One more chance
TTITLE4=Together - Night Falls mix - 
EXTD=YEAR: 2008
EXTT0=
EXTT1=
EXTT2=
EXTT3=
EXTT4=
PLAYORDER=
